<svg width="299" height="306" viewBox="0 0 299 306" fill="none" xmlns="http://www.w3.org/2000/svg">
<g filter="url(#filter0_d_0_1624)">
<ellipse cx="149.305" cy="150" rx="146.305" ry="150" fill="#C76C1B"/>
</g>
<ellipse cx="149.305" cy="143.35" rx="146.305" ry="143.35" fill="#EB9F0E"/>
<ellipse cx="149.305" cy="143.35" rx="146.305" ry="143.35" fill="url(#paint0_linear_0_1624)"/>
<circle cx="149.306" cy="146.305" r="112.315" fill="#BABFD4"/>
<ellipse cx="149.306" cy="152.217" rx="112.315" ry="106.404" fill="url(#paint1_linear_0_1624)"/>
<path d="M119.985 145.344L132.117 128.285C127.075 127.445 117.815 127.258 110.229 134.844C98.2726 146.8 93.4302 172.63 92.4207 178.882L122.809 209.271C128.279 208.802 152.5 205.568 175.838 182.23C176.086 181.726 181.771 177.525 177.123 172.877C174.905 170.659 171.232 170.7 168.966 172.967C167.812 174.121 166.017 174.138 164.887 173.008C163.757 171.878 163.774 170.083 164.928 168.929L173.175 160.682C177.366 156.491 173.415 149.421 167.566 151.12L160.814 156.9C159.581 157.974 157.749 157.788 156.735 156.617C155.688 155.404 155.912 153.568 157.104 152.535C180.688 131.843 177.245 134.335 192.418 120.113C198.087 115.393 190.956 107.044 185.369 111.824L148.664 144.832C147.596 145.741 145.959 145.758 144.909 144.79C143.696 143.743 143.668 142.234 144.461 141.042L170.064 101.239C173.806 96.171 166.441 90.5421 162.499 95.6515L124.643 148.596C123.73 149.916 121.89 150.219 120.637 149.295C119.379 148.451 119.035 146.619 119.985 145.344Z" fill="#3B4262"/>
<defs>
<filter id="filter0_d_0_1624" x="0" y="0" width="298.611" height="306" filterUnits="userSpaceOnUse" color-interpolation-filters="sRGB">
<feFlood flood-opacity="0" result="BackgroundImageFix"/>
<feColorMatrix in="SourceAlpha" type="matrix" values="0 0 0 0 0 0 0 0 0 0 0 0 0 0 0 0 0 0 127 0" result="hardAlpha"/>
<feOffset dy="3"/>
<feGaussianBlur stdDeviation="1.5"/>
<feColorMatrix type="matrix" values="0 0 0 0 0 0 0 0 0 0 0 0 0 0 0 0 0 0 0.196706 0"/>
<feBlend mode="normal" in2="BackgroundImageFix" result="effect1_dropShadow_0_1624"/>
<feBlend mode="normal" in="SourceGraphic" in2="effect1_dropShadow_0_1624" result="shape"/>
</filter>
<linearGradient id="paint0_linear_0_1624" x1="3" y1="0" x2="3" y2="286.699" gradientUnits="userSpaceOnUse">
<stop stop-color="white" stop-opacity="0.0966455"/>
<stop offset="1" stop-color="white" stop-opacity="0.01"/>
</linearGradient>
<linearGradient id="paint1_linear_0_1624" x1="259.759" y1="258.621" x2="259.759" y2="49.3401" gradientUnits="userSpaceOnUse">
<stop stop-color="#F3F3F3"/>
<stop offset="1" stop-color="#DADADA"/>
</linearGradient>
</defs>
</svg>
